<svg xmlns="http://www.w3.org/2000/svg" xmlns:xlink="http://www.w3.org/1999/xlink" version="1.1" id="Your_Icon" x="0px" y="0px" width="100px" height="100px" viewBox="0 0 100 100" enable-background="new 0 0 100 100" xml:space="preserve">
<path fill="#777" d="M74.688,29.596c4.688-6.83,5.984-13.778,2.658-17.104c-4.245-4.246-14.393-0.985-22.662,7.285  c-0.493,0.493-0.967,0.994-1.424,1.5C61.705,21.857,69.244,24.943,74.688,29.596z"/>
<path fill="#777" d="M50.355,21.169c3.994,0,7.823,0.56,11.37,1.586C61.107,12.202,56.513,4,50.928,4c-5.528,0-10.083,8.042-10.773,18.441  C43.37,21.618,46.795,21.169,50.355,21.169z"/>
<path fill="#777" d="M49.652,21.183c-0.432-0.474-0.873-0.944-1.337-1.407c-8.27-8.27-18.417-11.531-22.662-7.285  c-3.133,3.132-2.169,9.476,1.866,15.908C33.312,24.041,41.08,21.325,49.652,21.183z"/>
<path fill="#777" d="M75,38.5C75,45.956,64.254,96,51,96c-13.255,0-24-50.044-24-57.5S37.745,25,51,25C64.254,25,75,31.044,75,38.5z"/>
</svg>
