<?xml version="1.0" encoding="utf-8"?>
<!-- Generator: Adobe Illustrator 16.0.0, SVG Export Plug-In . SVG Version: 6.00 Build 0)  -->
<!DOCTYPE svg PUBLIC "-//W3C//DTD SVG 1.1//EN" "http://www.w3.org/Graphics/SVG/1.1/DTD/svg11.dtd">
<svg version="1.1" id="Layer_1" xmlns="http://www.w3.org/2000/svg" xmlns:xlink="http://www.w3.org/1999/xlink" x="0px" y="0px"
   width="100.001px" height="96.612px" viewBox="0 0 100.001 96.612" enable-background="new 0 0 100.001 96.612"
   xml:space="preserve">
<g>
  <path fill="#FFAA32" d="M93.174,8.786C82.8,1.804,67.552-0.201,50,0.016C32.447-0.2,17.198,1.805,6.825,8.786
    C1.276,12.522,0,18.355,0,23.076c0,6.742,1.921,11.604,5.896,14.143c0.898,0.574,2.66,0.843,1.877,2.047
    c-1.234,1.899-3,4.452-2.823,13.02c0.142,6.781-0.062-2.947,0.818,40.557c0.094,2.07,1.868,3.769,3.941,3.769h80.578
    c2.075,0,3.848-1.695,3.942-3.769c0.881-43.504,0.676-33.775,0.817-40.557c0.179-8.568-1.587-11.121-2.82-13.02
    c-0.785-1.204,0.978-1.473,1.876-2.047c3.976-2.539,5.897-7.401,5.897-14.143C100.001,18.355,98.724,12.521,93.174,8.786z
     M56.698,66.26c-0.228,0-0.458-0.019-0.692-0.063l-16.512-3.105c-2.037-0.382-3.391-2.362-3.008-4.402l3.106-16.511
    c0.34-1.806,1.932-3.073,3.708-3.073c0.228,0,0.46,0.021,0.693,0.065l16.513,3.106c2.035,0.382,3.392,2.363,3.008,4.401
    l-3.105,16.51C60.067,64.995,58.476,66.26,56.698,66.26z"/>
</g>
</svg>
