<?xml version="1.0" encoding="utf-8"?>
<!-- Generator: Adobe Illustrator 16.0.0, SVG Export Plug-In . SVG Version: 6.00 Build 0)  -->
<!DOCTYPE svg PUBLIC "-//W3C//DTD SVG 1.1//EN" "http://www.w3.org/Graphics/SVG/1.1/DTD/svg11.dtd">
<svg version="1.1" id="Layer_1" xmlns="http://www.w3.org/2000/svg" xmlns:xlink="http://www.w3.org/1999/xlink" x="0px" y="0px"
	 width="99.248px" height="99.999px" viewBox="0 0 99.248 99.999" enable-background="new 0 0 99.248 99.999" xml:space="preserve">
<g>
	<path fill="#333" d="M99.248,27.385c0-7.755-2.932-13.902-8.478-17.771C81.634,3.236,68.369,0,51.343,0
		c-0.565,0-1.143,0.003-1.718,0.011C49.05,0.003,48.471,0,47.907,0C30.882,0,17.616,3.236,8.478,9.614
		C2.932,13.482,0,19.629,0,27.385c0,8.272,2.687,13.117,5.576,15.933c-0.809,2.415-1.341,5.695-1.24,10.705
		c0.046,2.336,0.05,2.513,0.079,3.994c0.048,2.422,0.159,8.331,0.639,32.832v0.071l0.001,0.071c0.107,2.385,1.101,4.627,2.803,6.312
		c1.755,1.74,4.061,2.696,6.49,2.696h70.549c2.431,0,4.732-0.956,6.489-2.696c1.705-1.685,2.696-3.93,2.802-6.314l0.003-0.068
		l0.003-0.071c0.472-24.361,0.587-30.342,0.635-32.789c0.029-1.521,0.033-1.679,0.079-4.037c0.1-5.01-0.432-8.289-1.238-10.705
		C96.561,40.501,99.248,35.657,99.248,27.385z M86.596,42.085c1.081,1.725,2.626,4.039,2.469,11.823
		c-0.126,6.157,0.056-2.674-0.716,36.831c-0.082,1.876-1.635,3.416-3.45,3.416H14.351c-1.816,0-3.37-1.54-3.452-3.416
		c-0.77-39.505-0.592-30.674-0.716-36.831c-0.158-7.784,1.388-10.098,2.47-11.824c0.687-1.093-0.857-1.337-1.645-1.858
		c-3.48-2.307-5.163-6.72-5.163-12.841c0-4.288,1.118-9.587,5.979-12.98c8.743-6.1,21.438-8.559,36.083-8.559
		c0.567,0,1.142,0.002,1.719,0.01c0.574-0.008,1.146-0.01,1.718-0.01c14.641,0,27.341,2.457,36.08,8.559
		c4.861,3.393,5.979,8.692,5.979,12.98c0,6.122-1.683,10.533-5.164,12.841C87.45,40.746,85.91,40.99,86.596,42.085z"/>
	<path fill="#333" d="M57.677,40.981L46.32,38.847c-0.429-0.082-0.865-0.123-1.3-0.123v2.923v-2.923h-0.001
		c-3.396,0-6.318,2.423-6.946,5.759l-2.137,11.356c-0.349,1.85,0.047,3.729,1.116,5.29c1.066,1.561,2.671,2.611,4.521,2.958
		l11.358,2.137c0.43,0.082,0.866,0.124,1.301,0.124c3.4,0,6.322-2.422,6.948-5.761l2.135-11.357
		C64.034,45.403,61.505,41.702,57.677,40.981z M60.442,48.691l-2.135,11.356c-0.374,1.984-2.124,3.379-4.077,3.379
		c-0.252,0-0.506-0.025-0.761-0.071l-11.356-2.14c-2.238-0.42-3.727-2.597-3.306-4.835l2.134-11.355
		c0.373-1.983,2.124-3.376,4.076-3.376c0.253,0,0.505,0.021,0.763,0.07l11.355,2.136C59.375,44.276,60.865,46.451,60.442,48.691z"/>
</g>
</svg>
