<svg xmlns="http://www.w3.org/2000/svg" xmlns:xlink="http://www.w3.org/1999/xlink" xml:space="preserve" width="100px" height="100px" style="shape-rendering:geometricPrecision; text-rendering:geometricPrecision; image-rendering:optimizeQuality; fill-rule:evenodd; clip-rule:evenodd" viewBox="0 0 100 100">
 <defs>
  <style type="text/css">

    .str0 {stroke:black;stroke-width:0.900007}
    .fil0 {fill:#333}

  </style>
 </defs>
 <g id="Layer_x0020_1">
  <metadata id="CorelCorpID_0Corel-Layer"/>
  <path fill="#333" d="M92.1161 32.2762c9.34732,15.7832 4.01224,37.4223 -13.0336,46.3173 -12.1584,5.63626 -42.1173,6.93667 -50.6815,-5.63745 -2.68467,-4.53311 -3.77483,-8.63275 -3.71223,-12.208l-10.969 -4.16224c-1.10198,0.943708 -2.53348,1.51419 -4.09846,1.51419 -3.48074,0 -6.30241,-2.82168 -6.30241,-6.30241 0,-2.74845 1.75868,-5.08469 4.21184,-5.9469 -0.390948,-0.820873 -0.609454,-1.7386 -0.609454,-2.70711 0,-3.48074 2.82168,-6.30241 6.30241,-6.30241 3.24806,0 5.92209,2.45907 6.26462,5.61737l13.4848 5.11658c9.56819,-5.13311 24.2919,-1.96419 26.6494,13.5899l3.802 0c-2.44844,-16.3194 -12.9426,-21.7927 -28.6679,-19.0525 12.5458,-26.7687 42.6771,-34.6326 57.3595,-9.8363zm-77.7786 20.7132c-0.594099,0.507878 -1.363,0.814967 -2.20395,0.814967 -1.87206,0 -3.38861,-1.51655 -3.38861,-3.38861 0,-1.47757 0.943708,-2.73427 2.26419,-3.19845 -0.209057,-0.440555 -0.328349,-0.934259 -0.328349,-1.45395 0,-1.87206 1.51773,-3.38979 3.38979,-3.38979 1.74686,0 3.18546,1.32166 3.36735,3.0201l11.3493 4.30751 -2.93506 7.65833 -11.5147 -4.37011zm50.835 -27.3534c15.0733,-0.75473 23.4758,7.12683 24.2104,24.11l-4.00279 0c-1.44568,-15.0934 -8.22526,-21.221 -20.2076,-20.3092l0 -3.80082z"/>
 </g>
</svg>
