<svg xmlns="http://www.w3.org/2000/svg" xmlns:xlink="http://www.w3.org/1999/xlink" version="1.1" id="Layer_1" x="0px" y="0px" width="100px" height="100px" viewBox="0 0 100 100" enable-background="new 0 0 10 100" xml:space="preserve">
<path d="M56.466,11.306L4.82,45.244c0,0,38.595-7.779,67.95-14.236c-1.031-0.186-1.816-0.651-2.162-1.394  c-0.84-1.799,1.177-4.517,4.5-6.071c3.327-1.554,6.704-1.356,7.543,0.442c0.771,1.645-0.854,4.058-3.682,5.646  c5.828-1.305,11.1-2.523,15.366-3.57C80.566,11.306,56.466,11.306,56.466,11.306z M40.034,32.761  c-3.325,1.555-6.704,1.356-7.543-0.442c-0.841-1.799,1.174-4.517,4.5-6.071s6.703-1.356,7.544,0.442  C45.375,28.489,43.36,31.208,40.034,32.761z"/>
<path d="M84.247,53.604c0-4.888,3.746-8.852,8.368-8.852c0.592,0,1.165,0.066,1.721,0.189V28.275L4.82,47.458l0.45,7.968  c0.632-0.22,1.307-0.345,2.009-0.345c3.532,0,6.395,3.028,6.395,6.762c0,3.735-2.863,6.764-6.395,6.764  c-0.436,0-0.861-0.047-1.272-0.133l0.535,9.479l35.07-2.529c0.767-3.237,4.773-4.851,9.934-4.851c4.644,0,7.663,1.062,8.966,3.819  l33.824-2.888V62.27c-0.556,0.123-1.129,0.189-1.721,0.189C87.993,62.459,84.247,58.495,84.247,53.604z M23.511,74.51  c-3.532,0-6.394-3.028-6.394-6.764c0-3.734,2.862-6.763,6.394-6.763c3.531,0,6.395,3.028,6.395,6.763  C29.905,71.481,27.042,74.51,23.511,74.51z M64.825,54.097c-3.531,0-6.393-3.027-6.393-6.763c0-3.734,2.861-6.763,6.393-6.763  c3.532,0,6.396,3.028,6.396,6.763C71.221,51.069,68.357,54.097,64.825,54.097z"/>
</svg>
