<svg xmlns="http://www.w3.org/2000/svg" xmlns:xlink="http://www.w3.org/1999/xlink" version="1.1" x="0px" y="0px" width="100px" height="100px" viewBox="0 0 100 100" enable-background="new 0 0 100 100" xml:space="preserve">
<g id="Captions">
  <rect x="-192" width="185" height="99"/>
  <rect y="-36" width="100" height="30"/>
  <text transform="matrix(1 0 0 1 66 -19.5)" fill="#777" font-family="'Helvetica'" font-size="2.4">http://thenounproject.com</text>
  <text transform="matrix(1 0 0 1 7.166 -24.5)"><tspan x="0" y="0" fill="#777" font-family="'Helvetica-Bold'" font-size="6.1578">The Noun Project</tspan><tspan x="1.12" y="4.8" fill="#777" font-family="'Helvetica-Bold'" font-size="4">Icon Template</tspan></text>
  <text transform="matrix(1 0 0 1 -178.5 10.5)" fill="#777" font-family="'Helvetica-Bold'" font-size="6.1578">Reminders</text>
  <line fill="#777" stroke="#FFFFFF" stroke-miterlimit="10" x1="8" y1="-14.5" x2="18" y2="-14.5"/>
  <line fill="#777" stroke="#FFFFFF" stroke-miterlimit="10" x1="-179" y1="16.5" x2="-162" y2="16.5"/>
  <g>
    <g>
      <g>
        <rect x="-170.802" y="31.318" fill="#777" width="8.721" height="8.642"/>
        <path fill="#777" d="M-164.455,42.312h4.747v-4.703h-4.747V42.312z M-159.266,42.749h-5.63V37.17h5.63V42.749      L-159.266,42.749z M-166.221,44.062h8.279v-8.203h-8.279V44.062L-166.221,44.062z M-157.5,44.5h-9.163v-9.079h9.163V44.5      L-157.5,44.5z"/>
        <polygon fill="#777" points="-166.149,44.133 -166.292,43.991 -158.013,35.787 -157.871,35.929     "/>
      </g>
    </g>
  </g>
  <rect x="-179" y="58" fill="none" width="35" height="32.5"/>
  <text transform="matrix(1 0 0 1 -179 60.1299)"><tspan x="0" y="0" fill="#777" font-family="'Helvetica-Bold'" font-size="3">Strokes</tspan><tspan x="0" y="5" fill="#777" font-family="'Helvetica'" font-size="2.4">Try to keep strokes at 4px</tspan><tspan x="0" y="10" fill="#777" font-family="'Helvetica'" font-size="2.4">Minimum stroke weight is 2px</tspan><tspan x="0" y="14.5" fill="#777" font-family="'Helvetica'" font-size="2.4">For thicker strokes use even </tspan><tspan x="0" y="17.5" fill="#777" font-family="'Helvetica'" font-size="2.4">numbers: 6px, 8px etc.</tspan><tspan x="0" y="22" fill="#777" font-family="'Helvetica-Bold'" font-size="2.4">Remember to expand strokes </tspan><tspan x="0" y="25" fill="#777" font-family="'Helvetica-Bold'" font-size="2.4">before saving as an SVG </tspan></text>
  <rect x="-136.5" y="58" fill="none" width="35" height="32.5"/>
  <text transform="matrix(1 0 0 1 -136.5 60.1299)"><tspan x="0" y="0" fill="#777" font-family="'Helvetica-Bold'" font-size="3">Size</tspan><tspan x="0" y="5" fill="#777" font-family="'Helvetica'" font-size="2.4">Cannot be wider or taller than </tspan><tspan x="0" y="8.5" fill="#777" font-family="'Helvetica'" font-size="2.4">100px (artboard size)</tspan><tspan x="0" y="13.5" fill="#777" font-family="'Helvetica'" font-size="2.4">Scale your icon to fill as much of </tspan><tspan x="0" y="16.5" fill="#777" font-family="'Helvetica'" font-size="2.4">the artboard as possible</tspan></text>
  <rect x="-94" y="58" fill="none" width="35" height="32.5"/>
  <text transform="matrix(1 0 0 1 -94 60.1299)"><tspan x="0" y="0" fill="#777" font-family="'Helvetica-Bold'" font-size="3">Ungroup</tspan><tspan x="0" y="5" fill="#777" font-family="'Helvetica'" font-size="2.4">If your design has more than one </tspan><tspan x="0" y="8" fill="#777" font-family="'Helvetica'" font-size="2.4">shape, make sure to ungroup</tspan></text>
  <rect x="-50" y="58" fill="none" width="35" height="32.5"/>
  <text transform="matrix(1 0 0 1 -50 60.1299)"><tspan x="0" y="0" fill="#777" font-family="'Helvetica-Bold'" font-size="3">Save as</tspan><tspan x="0" y="5" fill="#777" font-family="'Helvetica'" font-size="2.4">Save as .SVG and make sure &#8220;Use </tspan><tspan x="0" y="8" fill="#777" font-family="'Helvetica'" font-size="2.4">Artboards&#8221; is checked</tspan></text>
  <text transform="matrix(1.0074 0 0 1 -125.542 30.5933)" fill="#777" font-family="'Helvetica'" font-size="2.5731">100px</text>
  <text transform="matrix(1.0074 0 0 1 -41 39)" fill="#777" font-family="'Helvetica-Bold'" font-size="5.1462">.SVG</text>
  <rect x="-126.514" y="34.815" fill="#777" width="10.261" height="10.185"/>
  <rect x="-126.477" y="31.766" fill="#777" width="0.522" height="2.337"/>
  <rect x="-116.813" y="31.766" fill="#777" width="0.523" height="2.337"/>
  <rect x="-127" y="32.337" fill="#777" width="11.233" height="0.572"/>
  <g>
    <rect x="-83.805" y="33.844" fill="#777" width="10.305" height="10.156"/>
    <rect x="-76.809" y="28.707" fill="#777" width="3.308" height="3.261"/>
  </g>
  <rect x="-178.5" y="22.5" fill="#777" stroke="#FFFFFF" stroke-miterlimit="10" width="30" height="30"/>
  <rect x="-136.5" y="22.5" fill="#777" stroke="#FFFFFF" stroke-miterlimit="10" width="30" height="30"/>
  <rect x="-93.5" y="22.5" fill="#777" stroke="#FFFFFF" stroke-miterlimit="10" width="30" height="30"/>
  <rect x="-49.5" y="22.5" fill="#777" stroke="#FFFFFF" stroke-miterlimit="10" width="30" height="30"/>
</g>
<g id="Your_Icon">
  <g>
    <path d="M91.602,58.949c-1.858-6.383-16.197-7.672-15.666-16.672c0.532-9-6.189-15.479-14.618-20.673c0,0-7.975-5.881-16.511-6.39    c-8.537-0.509-18.155,6.357-26.824,25.177C9.313,59.209,8.619,69.328,9.123,72.945l0.001-0.002    c-0.014,1.629,0.25,3.289,0.977,4.832c2.98,6.318,22.001,9.301,47.52,5.623C83.139,79.717,93.461,65.33,91.602,58.949z     M56.108,79.668c-6.618,0.955-12.733,1.395-18.125,1.395c-12.677,0-21.355-2.426-23.173-6.279    c-2.59-5.492,1.555-12.707,1.555-12.707s13.266-23.402,17.886-29.277c3.427-4.36,11.539-8.496,18.488-8.497h0.001    c2.416,0,4.691,0.5,6.58,1.665c7.325,4.514,13.167,10.145,12.706,17.966c-0.463,7.823,11.997,8.942,13.613,14.489    C87.254,63.969,78.283,76.471,56.108,79.668z"/>
    <path d="M35.958,34.139c-4.467,5.682-17.573,28.775-17.705,29.007c-0.041,0.07-3.548,6.328-1.481,10.711    c1.144,2.426,8.269,5.033,21.211,5.033c5.513,0,11.507-0.459,17.814-1.369c18.039-2.602,24.675-10.93,26.278-13.42    c1.501-2.332,1.748-4.148,1.48-5.072c-0.453-1.553-2.876-2.957-5.219-4.316c-3.93-2.279-8.821-5.115-8.479-10.908    c0.342-5.79-3.369-10.872-11.678-15.991c-1.444-0.891-3.274-1.342-5.441-1.342l0,0v-2.17l-0.001,2.17    C46.305,26.473,38.866,30.438,35.958,34.139z M60.302,49.883c0,0,0.927,1.359,1.266,2.462c0.339,1.1-0.593,2.287,2.714,3.221    c3.306,0.932,5.255,7.221,5.255,8.104c0,0.881-1.611,2.236-2.882,0.541c-1.271-1.695-0.848-4.49-4.07-5.848    c-3.221-1.357-3.85-5.721-5.104-7.48c-5.327-7.483-13.93,8.402-18.11,11.322c-4.182,2.922-5.397,1.014-2.769-1.717    c2.63-2.73,10.2-10.809,12.53-12.355c2.331-1.545,2.779-3.323,1.291-5.494c-1.489-2.171-4.82-10.099-1.033-8.775    C49.39,33.864,55.762,45.871,60.302,49.883z"/>
  </g>
</g>
</svg>
